<svg xmlns="http://www.w3.org/2000/svg" viewBox="0 0 64 64">
  <path d="M32 20a12 12 0 1 0 0 24 12 12 0 0 0 0-24zm0 18a6 6 0 1 1 0-12 6 6 0 0 1 0 12z" fill="#60a5fa"/>
  <path d="M55.4 27.2l-3.8-.6a20.2 20.2 0 0 0-1.7-4.1l2.3-3.1a2 2 0 0 0-.2-2.6l-4.8-4.8a2 2 0 0 0-2.6-.2l-3.1 2.3a20.2 20.2 0 0 0-4.1-1.7l-.6-3.8A2 2 0 0 0 34.8 7h-5.6a2 2 0 0 0-2 1.6l-.6 3.8a20.2 20.2 0 0 0-4.1 1.7l-3.1-2.3a2 2 0 0 0-2.6.2l-4.8 4.8a2 2 0 0 0-.2 2.6l2.3 3.1a20.2 20.2 0 0 0-1.7 4.1l-3.8.6A2 2 0 0 0 7 29.2v5.6a2 2 0 0 0 1.6 2l3.8.6a20.2 20.2 0 0 0 1.7 4.1l-2.3 3.1a2 2 0 0 0 .2 2.6l4.8 4.8a2 2 0 0 0 2.6.2l3.1-2.3a20.2 20.2 0 0 0 4.1 1.7l.6 3.8a2 2 0 0 0 2 1.6h5.6a2 2 0 0 0 2-1.6l.6-3.8a20.2 20.2 0 0 0 4.1-1.7l3.1 2.3a2 2 0 0 0 2.6-.2l4.8-4.8a2 2 0 0 0 .2-2.6l-2.3-3.1a20.2 20.2 0 0 0 1.7-4.1l3.8-.6A2 2 0 0 0 57 34.8v-5.6a2 2 0 0 0-1.6-2z" fill="#3b82f6"/>
</svg>
